<svg width="433" height="403" viewBox="0 0 433 403" fill="none" xmlns="http://www.w3.org/2000/svg">
<path d="M388.586 402.479H9.21616C4.29616 402.479 0.316162 398.499 0.316162 393.579C0.316162 388.659 4.29616 384.679 9.21616 384.679H388.586C393.506 384.679 397.486 388.659 397.486 393.579C397.486 398.489 393.496 402.479 388.586 402.479Z" fill="#FFD0C7"/>
<path d="M30.9662 165.419C30.2562 162.879 28.9662 160.669 27.1062 158.799C26.0962 158.019 25.0862 157.239 24.0662 156.449C21.7262 155.089 19.2062 154.409 16.4962 154.399H15.7562C13.6862 154.319 11.7662 154.749 9.97617 155.689C8.11617 156.289 6.50618 157.329 5.14618 158.789C3.68618 160.149 2.64617 161.759 2.04617 163.619C1.10617 165.409 0.676177 167.329 0.756177 169.399C0.936177 170.729 1.11617 172.059 1.29617 173.389C2.00617 175.929 3.29617 178.139 5.15617 180.009C6.16617 180.789 7.17618 181.569 8.19618 182.359C10.5362 183.719 13.0562 184.399 15.7662 184.409H16.5062C18.5762 184.489 20.4962 184.059 22.2862 183.119C24.1462 182.519 25.7562 181.479 27.1162 180.019C28.5762 178.659 29.6162 177.049 30.2162 175.189C31.1562 173.399 31.5862 171.479 31.5062 169.409C31.3262 168.069 31.1462 166.749 30.9662 165.419Z" fill="#EBEBEB"/>
<path d="M400.186 182.649C418.086 182.649 432.596 168.139 432.596 150.239C432.596 132.34 418.086 117.829 400.186 117.829C382.287 117.829 367.776 132.34 367.776 150.239C367.776 168.139 382.287 182.649 400.186 182.649Z" fill="#EBEBEB"/>
<path d="M278.916 0.749062C277.516 1.02906 276.166 1.42906 274.886 1.95906C274.966 2.05906 275.046 2.14906 275.116 2.25906C276.166 3.93906 275.656 6.15906 273.976 7.21906C272.296 8.26906 270.076 7.75906 269.016 6.07906C268.946 5.95906 268.896 5.82906 268.836 5.70906C267.776 6.63906 266.806 7.66906 265.936 8.77906C266.056 8.82906 266.186 8.86906 266.306 8.92906C268.056 9.85906 268.726 12.0391 267.796 13.7891C266.866 15.5391 264.686 16.2091 262.936 15.2791C262.796 15.2091 262.676 15.1091 262.556 15.0291C262.096 16.3591 261.766 17.7391 261.576 19.1691C261.726 19.1491 261.866 19.1091 262.026 19.1091C264.006 19.0391 265.676 20.5891 265.746 22.5791C265.816 24.5591 264.266 26.2291 262.276 26.2991C262.106 26.3091 261.936 26.2791 261.766 26.2691C262.036 27.6991 262.456 29.0791 262.986 30.3891C263.116 30.2791 263.246 30.1691 263.386 30.0791C265.066 29.0291 267.286 29.5391 268.346 31.2191C269.396 32.8991 268.886 35.1191 267.206 36.1791C267.046 36.2791 266.876 36.3491 266.706 36.4291C267.656 37.5191 268.706 38.5191 269.846 39.3991C269.906 39.2291 269.966 39.0591 270.056 38.8891C270.986 37.1391 273.166 36.4691 274.916 37.3991C276.666 38.3291 277.336 40.5091 276.406 42.2591C276.316 42.4391 276.196 42.5991 276.076 42.7491C277.436 43.2191 278.846 43.5491 280.306 43.7391C280.266 43.5591 280.236 43.3691 280.226 43.1791C280.156 41.1991 281.706 39.5291 283.696 39.4591C285.676 39.3891 287.346 40.9391 287.416 42.9291C287.426 43.1291 287.406 43.3291 287.376 43.5191C288.816 43.2391 290.216 42.8091 291.536 42.2591C291.416 42.1191 291.286 41.9791 291.186 41.8091C290.136 40.1291 290.646 37.9091 292.326 36.8491C294.006 35.7991 296.226 36.3091 297.286 37.9891C297.386 38.1591 297.466 38.3291 297.536 38.4991C298.626 37.5391 299.606 36.4791 300.486 35.3291C300.316 35.2691 300.156 35.2091 299.996 35.1291C298.246 34.1991 297.576 32.0191 298.506 30.2691C299.436 28.5191 301.616 27.8491 303.366 28.7791C303.526 28.8691 303.666 28.9691 303.806 29.0791C304.256 27.7391 304.586 26.3391 304.766 24.8891C304.606 24.9191 304.446 24.9491 304.286 24.9591C302.306 25.0291 300.636 23.4791 300.566 21.4891C300.496 19.5091 302.046 17.8391 304.036 17.7691C304.196 17.7591 304.356 17.7891 304.506 17.7991C304.216 16.3891 303.796 15.0291 303.256 13.7291C303.146 13.8191 303.036 13.9191 302.916 13.9991C301.236 15.0491 299.016 14.5391 297.956 12.8591C296.906 11.1791 297.416 8.95906 299.096 7.89906C299.216 7.81906 299.356 7.76906 299.476 7.70906C298.536 6.64906 297.506 5.68906 296.386 4.82906C296.336 4.94906 296.296 5.06906 296.236 5.18906C295.306 6.93906 293.126 7.60906 291.376 6.67906C289.626 5.74906 288.956 3.56906 289.886 1.81906C289.946 1.69906 290.036 1.59906 290.106 1.48906C288.786 1.04906 287.416 0.729062 286.006 0.539062C286.026 0.659062 286.056 0.779063 286.056 0.899063C286.126 2.87906 284.576 4.54906 282.586 4.61906C280.606 4.68906 278.936 3.13906 278.866 1.14906C278.886 1.00906 278.906 0.879062 278.916 0.749062ZM282.706 9.62906C289.606 9.38906 295.396 14.7791 295.646 21.6791C295.886 28.5791 290.496 34.3691 283.596 34.6191C276.696 34.8591 270.906 29.4691 270.656 22.5691C270.406 15.6691 275.806 9.87906 282.706 9.62906Z" fill="#EBEBEB"/>
<path d="M47.9462 129.549C70.3027 129.549 88.4262 112.916 88.4262 92.399C88.4262 71.8816 70.3027 55.249 47.9462 55.249C25.5897 55.249 7.46619 71.8816 7.46619 92.399C7.46619 112.916 25.5897 129.549 47.9462 129.549Z" fill="#EBEBEB"/>
<path d="M46.9862 92.9694L15.4162 82.8594C14.1762 86.1094 13.5462 89.5294 13.5462 92.9694C13.5462 109.799 28.6462 123.659 46.9862 123.659C53.0462 123.659 58.9962 122.149 64.1962 119.289L46.9862 92.9694Z" fill="#FF4917"/>
<path d="M48.7162 92.3994L66.1462 118.589C71.0362 115.849 75.0762 111.999 77.8862 107.419C80.6862 102.829 82.1662 97.6594 82.1662 92.3994H48.7162Z" fill="#FF7B5C"/>
<path d="M48.9062 90.9191L82.3462 90.4991C82.2862 86.3191 81.2962 82.1991 79.4362 78.3891C77.5762 74.5791 74.8962 71.1491 71.5362 68.3291L48.9062 90.9191Z" fill="#FEFEFF"/>
<path d="M144.896 56.0586H132.786V85.1586H144.896V56.0586Z" fill="#FF4917"/>
<path d="M163.616 41.8193H151.506V85.1593H163.616V41.8193Z" fill="#FF4917"/>
<path d="M182.326 22.1689H170.216V85.1589H182.326V22.1689Z" fill="#FF4917"/>
<path d="M201.046 49.7188H188.936V85.1587H201.046V49.7188Z" fill="#FF4917"/>
<path d="M126.306 22.7793V84.8993H209.036" stroke="#CECECE" stroke-width="0.8763" stroke-miterlimit="10"/>
<path d="M312.236 41.4791C309.486 42.0191 306.836 42.8191 304.316 43.8591C304.466 44.0591 304.636 44.2291 304.776 44.4491C306.846 47.7591 305.846 52.1191 302.536 54.1891C299.226 56.2591 294.866 55.2591 292.796 51.9491C292.646 51.7191 292.556 51.4691 292.436 51.2291C290.346 53.0591 288.436 55.0791 286.736 57.2691C286.976 57.3691 287.226 57.4391 287.466 57.5691C290.916 59.3991 292.226 63.6791 290.396 67.1291C288.566 70.5791 284.286 71.8891 280.836 70.0591C280.566 69.9191 280.336 69.7291 280.086 69.5591C279.186 72.1691 278.536 74.8991 278.156 77.6991C278.446 77.6491 278.726 77.5891 279.036 77.5791C282.936 77.4391 286.216 80.4891 286.356 84.3991C286.496 88.2991 283.446 91.5791 279.536 91.7191C279.196 91.7291 278.866 91.6891 278.536 91.6491C279.076 94.4591 279.886 97.1691 280.946 99.7491C281.196 99.5391 281.446 99.3191 281.736 99.1291C285.046 97.0591 289.406 98.0591 291.476 101.369C293.546 104.679 292.546 109.039 289.236 111.109C288.926 111.309 288.586 111.449 288.256 111.589C290.116 113.729 292.186 115.689 294.436 117.429C294.556 117.089 294.676 116.759 294.846 116.429C296.676 112.979 300.956 111.669 304.406 113.499C307.856 115.329 309.166 119.609 307.336 123.059C307.146 123.409 306.926 123.719 306.696 124.019C309.366 124.939 312.146 125.599 315.016 125.969C314.946 125.609 314.876 125.239 314.866 124.859C314.726 120.959 317.776 117.679 321.686 117.539C325.586 117.399 328.866 120.449 329.006 124.359C329.016 124.759 328.976 125.139 328.926 125.529C331.766 124.969 334.506 124.129 337.106 123.049C336.866 122.769 336.626 122.489 336.426 122.169C334.356 118.859 335.356 114.499 338.666 112.429C341.976 110.359 346.336 111.359 348.406 114.669C348.606 114.989 348.756 115.339 348.906 115.679C351.036 113.799 352.986 111.719 354.706 109.459C354.376 109.339 354.046 109.229 353.736 109.059C350.286 107.229 348.976 102.949 350.806 99.4991C352.636 96.0491 356.916 94.7391 360.366 96.5691C360.676 96.7391 360.956 96.9491 361.236 97.1491C362.126 94.5091 362.756 91.7491 363.116 88.9191C362.806 88.9691 362.496 89.0391 362.166 89.0491C358.266 89.1891 354.986 86.1391 354.846 82.2291C354.706 78.3291 357.756 75.0491 361.666 74.9091C361.986 74.8991 362.286 74.9391 362.596 74.9691C362.036 72.1891 361.206 69.5091 360.146 66.9691C359.926 67.1491 359.716 67.3391 359.466 67.4891C356.156 69.5591 351.796 68.5591 349.726 65.2491C347.656 61.9391 348.656 57.5791 351.966 55.5091C352.206 55.3591 352.466 55.2591 352.726 55.1391C350.886 53.0591 348.856 51.1591 346.646 49.4791C346.556 49.7191 346.476 49.9591 346.356 50.1891C344.526 53.6391 340.246 54.9491 336.796 53.1191C333.346 51.2891 332.036 47.0091 333.866 43.5591C333.996 43.3191 334.156 43.1191 334.306 42.9091C331.716 42.0391 329.026 41.4091 326.246 41.0391C326.276 41.2791 326.336 41.5091 326.346 41.7491C326.486 45.6491 323.436 48.9291 319.526 49.0691C315.626 49.2091 312.346 46.1591 312.206 42.2491C312.176 41.9891 312.216 41.7391 312.236 41.4791ZM319.546 54.7191C335.446 54.1591 348.796 66.5891 349.356 82.4991C349.916 98.3991 337.486 111.749 321.576 112.309C305.676 112.869 292.326 100.439 291.756 84.5291C291.206 68.6291 303.646 55.2791 319.546 54.7191Z" fill="#EBEBEB"/>
<path d="M270.726 77.879C269.856 77.239 268.776 76.709 268.446 75.689C267.906 74.039 269.676 72.329 269.236 70.649C268.866 69.239 267.196 68.669 265.756 68.459C264.316 68.239 262.666 68.049 261.836 66.839C261.156 65.839 261.316 64.509 261.156 63.309C260.836 60.889 258.976 58.739 256.626 58.069C254.126 57.359 251.946 59.629 249.856 60.539C247.576 61.529 246.186 63.479 245.676 65.939C245.186 68.289 245.536 70.739 246.046 73.079C246.556 75.429 247.236 77.749 247.416 80.149C247.616 82.819 247.016 85.169 246.286 87.689C245.796 89.399 245.676 91.799 246.596 93.379C247.506 94.929 249.336 95.659 251.066 96.159C254.416 97.129 257.956 97.649 261.416 97.129C264.686 96.639 267.856 95.109 269.986 92.599C271.496 91.339 272.716 89.749 273.396 87.899C274.666 84.419 273.716 80.069 270.726 77.879Z" fill="#273238"/>
<path d="M253.366 65.7693C253.786 67.2193 253.596 68.8393 252.836 70.1493C252.586 70.5793 252.196 71.0193 251.696 70.9793C251.126 70.9393 250.806 70.3193 250.626 69.7693C250.126 68.2793 249.816 66.7193 249.686 65.1493C249.606 64.1893 249.786 62.4493 251.156 62.7793C252.226 63.0493 253.086 64.8393 253.366 65.7693Z" fill="#FF6EA1"/>
<path d="M253.356 89.3187C252.346 92.8287 246.636 94.5287 243.346 90.4787C242.946 89.9787 242.566 89.4587 242.206 88.9287C238.666 89.6287 233.386 91.1687 231.026 94.0487C230.266 94.9787 229.886 96.1587 229.546 97.3187C228.306 101.519 227.286 105.789 226.476 110.099C226.386 110.589 226.296 111.109 226.466 111.579C226.666 112.159 227.206 112.539 227.696 112.929C232.596 116.789 233.876 123.029 235.496 128.659C237.946 137.209 239.066 149.049 241.516 157.599C249.526 158.219 282.916 150.639 286.936 147.119C281.176 136.749 276.516 118.039 274.686 105.019C273.916 99.4987 271.746 94.2487 269.636 89.0887C269.146 87.8787 268.696 85.0887 267.776 84.3087C266.556 83.2687 254.926 85.0287 253.696 85.0687C253.736 85.7587 253.776 86.4387 253.786 87.1287C253.796 87.9187 253.556 88.6287 253.356 89.3187Z" fill="#FF4917"/>
<path d="M241.456 83.6584C241.066 82.4384 240.546 81.2784 239.886 80.2084C241.876 80.1484 243.736 79.5084 245.366 78.3484C246.166 77.7784 246.886 77.1084 247.566 76.4084C247.806 76.1584 248.186 75.5284 248.576 75.0684C248.046 75.6884 249.346 79.1484 249.606 79.8584C250.146 81.3384 250.916 82.8084 251.976 83.9884C253.026 85.1584 253.716 85.3484 253.906 86.9984C254.106 88.7384 253.736 90.6584 253.146 92.2884C252.776 93.3084 252.236 94.3284 251.326 94.9184C250.256 95.5984 248.876 95.5684 247.646 95.2484C245.576 94.7084 242.736 92.9784 241.996 90.8184C241.606 89.6884 242.046 89.1084 242.146 87.9384C242.266 86.4984 241.886 84.9984 241.456 83.6584Z" fill="#FFC1A6"/>
<path d="M242.156 87.3584C242.156 87.2384 242.156 87.1284 242.146 87.0084C242.046 85.8784 241.806 84.7384 241.456 83.6584C241.066 82.4384 240.546 81.2784 239.886 80.2084C241.876 80.1484 243.736 79.5084 245.366 78.3484C246.166 77.7784 246.886 77.1084 247.566 76.4084C247.806 76.1584 248.186 75.5284 248.576 75.0684C248.636 75.7084 248.726 76.3484 248.836 76.9784C248.566 81.0584 245.766 85.4884 242.156 87.3584Z" fill="#E3856D"/>
<path d="M228.966 72.539C229.756 75.759 231.636 78.709 234.226 80.779C234.936 81.349 235.706 81.859 236.586 82.079C237.466 82.299 238.456 82.199 239.166 81.639C240.176 80.839 240.346 79.399 240.416 78.109C240.556 75.699 240.636 73.269 240.186 70.899C239.736 68.529 238.716 66.209 236.946 64.569C235.496 63.229 231.526 61.289 229.776 63.129C227.886 65.149 228.376 70.149 228.966 72.539Z" fill="#273238"/>
<path d="M231.036 66.8789C231.376 64.6189 233.936 66.2989 236.016 65.3389C237.826 64.4989 239.196 63.7789 241.236 63.9189C243.046 64.0489 244.856 64.7589 246.126 66.0889C246.466 66.4489 246.786 66.8189 247.076 67.1889C247.876 68.5289 248.626 69.8989 249.186 71.3589C249.196 71.3889 249.196 71.4289 249.206 71.4589C249.396 74.3689 248.696 77.1089 247.326 79.4789C245.996 81.7789 243.606 83.3889 240.946 83.3289C239.526 83.2989 238.146 82.8289 236.886 81.7489C235.626 80.6689 234.706 79.2589 233.906 77.8089C232.686 75.5989 230.656 69.3689 231.036 66.8789Z" fill="#FFC1A6"/>
<path d="M240.936 71.1287C238.466 70.5487 235.916 70.1887 233.646 69.0687C231.986 68.2487 230.466 66.8987 229.716 65.1787C228.956 63.4287 229.476 62.1987 230.486 60.6887C231.916 58.5287 234.216 56.9287 236.716 56.2787C239.226 55.6187 242.366 56.5887 244.776 57.4287C246.446 58.0087 248.046 58.9287 249.176 60.2887C251.136 62.6587 251.806 66.7387 251.646 69.7387C251.576 71.0187 251.236 72.1687 250.886 73.3787C250.606 74.3787 250.096 75.5087 248.936 75.6487C248.136 75.7487 246.546 73.4787 245.736 72.9687C244.456 72.1687 243.006 71.6587 241.556 71.2887C241.346 71.2287 241.146 71.1787 240.936 71.1287Z" fill="#273238"/>
<path d="M237.136 73.8486C237.176 74.2486 237.536 74.5386 237.936 74.4986C238.336 74.4586 238.626 74.0986 238.586 73.6986C238.546 73.2986 238.186 73.0086 237.786 73.0486C237.386 73.0986 237.096 73.4486 237.136 73.8486Z" fill="#485070"/>
<path d="M238.216 71.7683C237.726 71.6683 237.216 71.7383 236.766 71.9583" stroke="#485070" stroke-width="0.75" stroke-miterlimit="10" stroke-linecap="round"/>
<path d="M232.646 75.0586C232.686 75.4586 233.046 75.7486 233.446 75.7086C233.846 75.6686 234.136 75.3086 234.096 74.9086C234.056 74.5086 233.696 74.2186 233.296 74.2586C232.896 74.2986 232.606 74.6586 232.646 75.0586Z" fill="#485070"/>
<path d="M233.726 72.9782C233.236 72.8782 232.726 72.9482 232.276 73.1682" stroke="#485070" stroke-width="0.75" stroke-miterlimit="10" stroke-linecap="round"/>
<path d="M235.276 75.1387C235.426 75.7687 235.316 76.4487 234.986 76.9987C234.896 77.1387 234.796 77.2987 234.816 77.4587C234.846 77.6387 235.026 77.7587 235.196 77.7787C235.366 77.7987 235.556 77.7487 235.726 77.6987" stroke="#485070" stroke-width="0.75" stroke-miterlimit="10" stroke-linecap="round"/>
<path d="M238.936 78.7686C238.326 79.4286 237.396 79.7686 236.506 79.6686" stroke="#485070" stroke-width="0.75" stroke-miterlimit="10" stroke-linecap="round"/>
<path d="M249.366 71.2788C249.516 72.7388 248.456 74.0488 246.986 74.1988C245.526 74.3488 244.216 73.2888 244.066 71.8188C243.916 70.3588 244.976 69.0488 246.446 68.8988C247.906 68.7488 249.216 69.8188 249.366 71.2788Z" fill="#FFC1A6"/>
<path d="M247.116 70.3685C246.726 70.3585 246.336 70.5585 246.126 70.8885C245.916 71.2185 245.886 71.6485 246.046 71.9985C246.256 71.7685 246.606 71.6785 246.896 71.7885C247.186 71.8985 247.396 72.1985 247.406 72.5085" stroke="#485070" stroke-width="0.75" stroke-miterlimit="10" stroke-linecap="round" stroke-linejoin="round"/>
<path d="M311.096 380.149H100.146C95.3161 380.149 91.4061 376.239 91.4061 371.409V253.049C91.4061 248.219 95.3161 244.309 100.146 244.309H311.096C315.926 244.309 319.836 248.219 319.836 253.049V371.409C319.836 376.229 315.926 380.149 311.096 380.149Z" stroke="#15222B" stroke-width="0.75" stroke-miterlimit="10"/>
<path d="M336.746 380.318H74.4962C74.4962 386.338 79.3761 391.218 85.3961 391.218H325.836C331.866 391.218 336.746 386.338 336.746 380.318Z" fill="#15222B"/>
<path d="M307.526 375.879H103.716C99.9462 375.879 96.8862 372.819 96.8862 369.049V256.469C96.8862 252.699 99.9462 249.639 103.716 249.639H307.526C311.296 249.639 314.356 252.699 314.356 256.469V369.049C314.356 372.829 311.296 375.879 307.526 375.879Z" fill="#14212A"/>
<path d="M208.656 246.859C208.656 247.799 207.896 248.549 206.966 248.549C206.026 248.549 205.276 247.789 205.276 246.859C205.276 245.919 206.036 245.169 206.966 245.169C207.906 245.169 208.656 245.919 208.656 246.859Z" fill="#333333"/>
<path d="M119.307 121.506L119.307 375.146H291.927V121.506H119.307Z" fill="white" stroke="#EFEFEF" stroke-miterlimit="10"/>
<path d="M221.476 355.02L198.506 326.41L178.526 352L161.206 333.29L163.476 331.2L178.326 347.24L198.466 321.44L220.836 349.31L233.826 322.8L261.236 317.95L261.766 320.99L235.906 325.56L221.476 355.02Z" fill="#EBEBEB"/>
<path d="M265.456 319.47C265.456 317.28 263.686 315.51 261.496 315.51C259.306 315.51 257.536 317.28 257.536 319.47C257.536 321.66 259.306 323.43 261.496 323.43C263.686 323.43 265.456 321.65 265.456 319.47Z" fill="#FF4917"/>
<path d="M225.276 352.17C225.276 349.98 223.506 348.21 221.316 348.21C219.126 348.21 217.356 349.98 217.356 352.17C217.356 354.36 219.126 356.13 221.316 356.13C223.506 356.12 225.276 354.35 225.276 352.17Z" fill="#FF4917"/>
<path d="M238.356 324.18C238.356 321.99 236.586 320.22 234.396 320.22C232.206 320.22 230.436 321.99 230.436 324.18C230.436 326.37 232.206 328.14 234.396 328.14C236.586 328.14 238.356 326.36 238.356 324.18Z" fill="#FF4917"/>
<path d="M198.336 328.14C200.523 328.14 202.296 326.367 202.296 324.18C202.296 321.993 200.523 320.22 198.336 320.22C196.149 320.22 194.376 321.993 194.376 324.18C194.376 326.367 196.149 328.14 198.336 328.14Z" fill="#FF4917"/>
<path d="M178.896 353.109C181.083 353.109 182.856 351.336 182.856 349.149C182.856 346.962 181.083 345.189 178.896 345.189C176.709 345.189 174.936 346.962 174.936 349.149C174.936 351.336 176.709 353.109 178.896 353.109Z" fill="#FF4917"/>
<path d="M167.156 332.989C167.156 330.799 165.386 329.029 163.196 329.029C161.006 329.029 159.236 330.799 159.236 332.989C159.236 335.179 161.006 336.949 163.196 336.949C165.386 336.949 167.156 335.179 167.156 332.989Z" fill="#FF4917"/>
<path d="M145.776 307.979V361.969H266.256" stroke="#CECECE" stroke-width="0.8763" stroke-miterlimit="10"/>
<path d="M173.756 221.8H155.366V264.51H173.756V221.8Z" fill="#FF4917"/>
<path d="M202.176 200.89H183.786V264.5H202.176V200.89Z" fill="#FF4917"/>
<path d="M151.936 209.56C174.016 199.51 193.876 184.64 209.736 166.29" stroke="#15222B" stroke-width="0.75" stroke-miterlimit="10" stroke-linecap="round"/>
<path d="M211.416 164.31L210.106 168.03L209.566 166.39L207.876 166.05L211.416 164.31Z" fill="#15222B"/>
<path d="M230.606 172.05H212.216V264.51H230.606V172.05Z" fill="#FF4917"/>
<path d="M259.036 212.489H240.646V264.509H259.036V212.489Z" fill="#FF4917"/>
<path d="M144.546 173.77V264.65H267.396" stroke="#CECECE" stroke-width="0.8763" stroke-miterlimit="10"/>
<path d="M267.216 273.419H143.846V279.629H267.216V273.419Z" fill="#FFD0C7"/>
<path d="M242.446 150.429H168.306V156.639H242.446V150.429Z" fill="#FFD0C7"/>
<path d="M267.066 139.579H143.696V145.789H267.066V139.579Z" fill="#FFD0C7"/>
<path d="M267.216 284.81H143.846V291.02H267.216V284.81Z" fill="#FFD0C7"/>
<path d="M267.216 296.199H143.846V302.409H267.216V296.199Z" fill="#FFD0C7"/>
<path d="M262.536 84.5684C261.096 84.9084 259.666 85.3084 258.256 85.7084C258.016 85.7784 257.766 85.8484 257.586 86.0084C257.326 86.2384 257.236 86.5884 257.166 86.9284C256.236 91.4484 257.506 97.4284 260.416 101.058C261.296 102.158 262.336 103.108 263.286 104.148C264.226 105.168 265.476 106.088 266.316 107.168C267.296 108.418 267.706 110.438 268.166 111.928C269.206 115.358 269.856 118.908 270.086 122.478C270.236 124.858 270.346 127.558 272.176 129.088C273.986 130.608 276.846 130.218 278.706 128.778C280.566 127.338 281.626 125.088 282.416 122.868C284.476 117.108 285.606 110.888 285.306 104.758C285.036 99.1684 283.326 92.4384 279.716 88.0184C277.296 85.0584 273.316 83.7384 269.496 83.6784C267.146 83.6484 264.826 84.0284 262.536 84.5684Z" fill="#FF4917"/>
<path d="M240.286 133.529C240.776 133.349 241.306 133.249 241.876 133.229C246.726 133.119 251.466 132.619 256.356 132.129C259.636 131.799 262.916 131.609 266.176 131.569C268.806 131.529 271.856 132.109 274.426 131.379C277.136 130.609 278.986 129.849 280.346 127.609C281.006 126.519 281.596 125.409 282.126 124.289C282.436 123.629 282.726 122.919 282.586 122.249C282.376 121.259 281.286 120.659 280.216 120.269C277.946 119.429 276.536 118.129 273.926 117.859C271.276 117.589 268.476 117.929 265.806 118.499C260.606 119.589 255.396 120.039 250.296 121.559C244.526 123.279 239.016 125.679 233.556 128.109C231.556 128.999 229.496 129.949 228.056 131.439C225.836 133.719 225.596 137.119 227.486 139.249C228.036 139.869 228.876 140.409 229.836 140.239C230.796 140.069 231.436 138.809 230.626 138.439C235.886 140.459 236.026 135.059 240.286 133.529Z" fill="#FFC1A6"/>
<path d="M223.866 134.359L223.906 134.039C223.826 134.239 223.746 134.429 223.666 134.629C223.736 134.539 223.796 134.449 223.866 134.359Z" fill="#FF6EA1"/>
<path d="M237.486 93.7487C237.186 93.1787 236.746 92.7087 236.146 92.3587C234.446 91.3687 230.886 92.8887 229.366 93.7287C229.036 93.9087 228.726 94.0987 228.406 94.3187C226.566 95.4787 224.956 97.0687 223.546 98.6187C223.056 99.1587 222.576 99.6987 222.106 100.249C215.056 108.399 210.496 117.369 211.636 128.279C211.876 130.619 212.346 133.129 214.086 134.709C215.466 135.959 217.486 136.389 219.316 136.049C221.056 135.729 222.646 134.789 223.946 133.589L223.896 134.039C223.986 133.829 224.066 133.619 224.156 133.399C226.936 130.699 227.586 126.969 228.266 123.329C228.266 123.319 228.266 123.309 228.266 123.309C230.476 117.879 232.686 112.459 234.896 107.029C235.966 104.429 239.376 97.2987 237.486 93.7487Z" fill="#FF4917"/>
<path d="M226.216 174.269C229.256 169.299 223.706 168.469 222.906 164.029C222.816 163.519 222.796 162.979 222.886 162.409C223.656 157.569 224.006 152.789 224.386 147.849C224.646 144.549 225.046 141.259 225.586 137.999C225.956 135.799 226.806 133.359 226.916 131.079C226.866 130.349 226.776 129.619 226.656 128.909C225.766 127.239 224.336 125.909 222.086 125.179C219.436 124.319 216.246 124.979 214.086 126.769C213.526 127.619 213.036 128.519 212.606 129.429C212.046 131.789 211.926 134.289 212.016 136.719C212.196 142.039 211.716 147.279 212.356 152.549C213.076 158.509 214.556 164.299 216.086 170.039C216.646 172.139 217.246 174.309 218.516 175.939C220.466 178.429 223.926 179.109 226.476 177.489C227.206 177.019 227.926 176.249 227.926 175.279C227.936 174.319 226.756 173.519 226.216 174.269Z" fill="#FFC1A6"/>
<path d="M77.3761 240.119C81.0961 244.369 82.6261 250.109 83.8861 255.479C85.5161 262.419 87.1561 269.369 88.7861 276.309C89.1661 277.939 89.5561 279.579 89.6061 281.259C89.6861 283.949 88.9161 287.359 88.2861 289.949C87.4761 293.269 85.4861 293.069 82.5361 292.769C77.8561 292.309 71.4961 290.889 68.3361 287.079C66.8361 285.269 66.3561 282.839 65.9161 280.529C65.3261 277.349 64.7261 274.169 64.1361 270.979C61.7061 257.979 59.2761 244.569 62.0261 231.629C68.5661 232.609 73.5461 235.749 77.3761 240.119Z" fill="white"/>
<path d="M84.2461 281.239C86.3161 282.219 88.2961 283.479 90.2861 284.679C93.4461 286.579 96.7461 287.919 99.9861 289.689C100.906 290.189 101.846 290.689 102.856 290.869C104.586 291.179 106.416 290.519 108.166 290.759C110.496 291.069 112.486 293.149 113.336 295.899C114.756 300.529 111.426 298.809 109.216 298.399C107.496 298.079 105.766 297.769 104.046 297.449C97.2661 296.209 90.7661 295.609 83.8261 295.249C80.0561 295.049 73.4061 295.139 70.5861 291.709C69.2161 290.039 67.6961 282.749 69.5061 280.949C69.8461 280.609 70.2561 280.459 70.6661 280.319C74.2861 279.119 77.9961 279.069 81.4961 280.149C82.4361 280.439 83.3461 280.809 84.2461 281.239Z" fill="#9C5240"/>
<path d="M81.7961 334.798H15.6561C13.4861 334.798 11.7261 333.038 11.7261 330.868C11.7261 328.698 13.4861 326.938 15.6561 326.938H81.7961C83.9661 326.938 85.7261 328.698 85.7261 330.868C85.7261 333.038 83.9661 334.798 81.7961 334.798Z" fill="#15222B"/>
<path d="M8.67615 282.929V259.719C8.67615 256.219 11.5161 253.389 15.0061 253.389H66.7361C70.2361 253.389 73.0661 256.229 73.0661 259.719V282.929C73.0661 286.429 70.2261 289.259 66.7361 289.259H15.0061C11.5061 289.259 8.67615 286.429 8.67615 282.929Z" fill="#15222B"/>
<path d="M20.9161 283.429H16.9161V331.169H20.9161V283.429Z" fill="#15222B"/>
<path d="M48.6461 332.829H44.6461V390.819H48.6461V332.829Z" fill="#15222B"/>
<path d="M18.5861 332.829H14.5861V390.819H18.5861V332.829Z" fill="#15222B"/>
<path d="M82.7062 332.829H78.7062V390.819H82.7062V332.829Z" fill="#485070"/>
<path d="M62.1761 332.829H58.1761V390.819H62.1761V332.829Z" fill="#15222B"/>
<path d="M122.716 353.18C120.446 353.66 118.886 353.77 116.206 354.15C112.306 354.7 108.406 355.16 104.486 355.49C105.506 362.54 106.436 368.74 106.676 369.98C107.696 375.38 107.136 388.91 109.546 394.04C112.476 394.4 115.016 393.92 117.756 393.7C119.216 380.17 120.416 366.59 122.716 353.18Z" fill="#CF9378"/>
<path d="M102.286 365.049C102.296 366.149 102.316 367.289 102.536 368.359C105.636 371.639 110.286 373.319 114.756 373.539C117.376 373.669 119.886 373.259 122.276 372.489C122.566 367.209 122.876 361.929 123.216 356.649C123.656 349.779 124.006 342.919 124.866 336.079C125.246 333.039 125.696 324.029 124.966 317.609C123.216 310.899 118.756 309.069 118.756 309.069C118.756 309.069 106.296 304.139 96.7562 302.039C85.0462 299.469 73.1362 297.559 61.3562 294.989C55.6962 293.759 46.2262 293.979 43.2962 300.179C39.9162 307.339 46.6562 316.859 52.0862 320.999C57.7062 325.279 64.6362 327.439 71.5362 328.949C81.2962 331.079 91.3162 332.039 101.306 331.809C100.996 331.829 102.276 362.579 102.286 365.049Z" fill="#15222B"/>
<path d="M101.306 331.879C101.326 331.859 101.346 331.849 101.366 331.829C99.1862 329.669 97.1362 327.379 94.9562 325.219C91.7162 321.999 88.5662 318.689 85.3562 315.449C78.9662 309.019 72.5362 302.609 66.2862 296.039C64.6462 295.709 63.0062 295.359 61.3662 295.009C55.7062 293.779 46.2362 293.999 43.3062 300.199C39.9262 307.359 46.6662 316.879 52.0962 321.019C57.7162 325.299 64.6462 327.459 71.5462 328.969C81.3062 331.099 91.3262 332.059 101.316 331.829C101.316 331.829 101.306 331.859 101.306 331.879Z" fill="#15222B"/>
<path d="M109.436 306.059C101.056 303.369 93.4162 300.869 81.1161 299.209" stroke="#485070" stroke-width="0.75" stroke-miterlimit="10"/>
<path d="M134.926 400.79H109.066C108.536 400.79 108.106 400.36 108.106 399.83V397.89H134.926V400.79Z" fill="#B3B3B3"/>
<path d="M134.556 398.669C134.646 398.529 134.736 398.399 134.806 398.239C135.456 396.809 134.696 395.089 133.446 394.069C132.196 393.049 130.576 392.589 128.996 392.139C125.626 391.189 122.386 390.289 118.916 389.819C118.006 389.689 108.236 388.799 108.276 388.359C108.126 390.819 107.976 393.279 107.826 395.749C107.766 396.769 107.506 397.769 107.816 398.659H134.556V398.669Z" fill="#485070"/>
<path d="M112.726 386.34C114.216 385.11 116.526 385.11 118.126 386.19C119.726 387.27 120.596 389.27 120.506 391.19C120.486 391.55 120.426 391.94 120.156 392.17C119.886 392.41 119.496 392.43 119.136 392.43C117.596 392.45 116.056 392.47 114.516 392.48C113.556 392.49 112.326 392.71 111.666 391.85C110.486 390.34 111.576 387.49 112.726 386.34Z" fill="#485070"/>
<path d="M122.876 390.54C121.976 390.45 121.046 391.02 120.726 391.88" stroke="#B3B3B3" stroke-width="0.75" stroke-miterlimit="10" stroke-linecap="round"/>
<path d="M123.436 392.89C123.906 392.11 124.796 391.6 125.716 391.59" stroke="#B3B3B3" stroke-width="0.75" stroke-miterlimit="10" stroke-linecap="round"/>
<path d="M126.826 393.249C127.046 392.679 127.636 392.279 128.246 392.279" stroke="#B3B3B3" stroke-width="0.75" stroke-miterlimit="10" stroke-linecap="round"/>
<path d="M78.2762 349.539C74.8462 350.019 71.3962 350.419 67.9462 350.739C70.5562 363.569 71.7562 376.639 73.8862 389.559C76.8162 389.549 79.4862 388.929 82.6062 388.999C83.1962 385.089 84.3962 361.869 86.2262 348.249C83.0762 349.019 81.4862 349.079 78.2762 349.539Z" fill="#CF9378"/>
<path d="M68.4562 367.799C69.1662 370.689 69.9962 372.459 72.8362 373.589C75.3062 374.569 78.0062 374.969 80.6462 374.689C84.1962 374.309 87.0962 371.699 87.0962 371.699C87.0962 371.699 90.7762 316.909 86.1962 309.889C80.6062 301.299 68.3562 299.539 58.8162 297.439C50.4562 295.599 41.9962 294.109 33.5562 292.469C31.4962 300.279 32.9862 309.469 35.9662 316.679C35.9862 316.719 35.9962 316.749 36.0162 316.789C38.3862 322.449 43.8162 326.279 49.9262 326.799C54.3962 327.179 58.8862 327.319 63.3662 327.219C63.3162 327.219 65.9162 357.449 68.4562 367.799Z" fill="#15222B"/>
<path d="M100.006 400.369H74.1462C73.6162 400.369 73.1862 399.939 73.1862 399.409V397.469H100.006V400.369Z" fill="#B3B3B3"/>
<path d="M99.6262 398.248C99.7162 398.108 99.8062 397.978 99.8762 397.818C100.526 396.388 99.7662 394.668 98.5162 393.648C97.2662 392.628 95.6462 392.168 94.0662 391.718C90.6962 390.768 87.4562 389.868 83.9862 389.398C83.0762 389.268 73.3062 388.378 73.3462 387.938C73.1962 390.398 73.0462 392.858 72.8962 395.328C72.8362 396.348 72.5762 397.348 72.8862 398.238H99.6262V398.248Z" fill="#485070"/>
<path d="M77.8061 385.919C79.2961 384.689 81.6061 384.689 83.2061 385.769C84.8061 386.849 85.6761 388.849 85.5861 390.769C85.5661 391.129 85.5061 391.519 85.2361 391.749C84.9661 391.989 84.5761 392.009 84.2161 392.009C82.6761 392.029 81.1361 392.049 79.5961 392.059C78.6361 392.069 77.4061 392.289 76.7461 391.429C75.5661 389.919 76.6561 387.069 77.8061 385.919Z" fill="#485070"/>
<path d="M87.9561 390.119C87.0561 390.029 86.1262 390.599 85.8062 391.459" stroke="#B3B3B3" stroke-width="0.75" stroke-miterlimit="10" stroke-linecap="round"/>
<path d="M88.5162 392.469C88.9862 391.689 89.8762 391.179 90.7962 391.169" stroke="#B3B3B3" stroke-width="0.75" stroke-miterlimit="10" stroke-linecap="round"/>
<path d="M91.9062 392.828C92.1262 392.258 92.7162 391.858 93.3262 391.858" stroke="#B3B3B3" stroke-width="0.75" stroke-miterlimit="10" stroke-linecap="round"/>
<path d="M32.4361 303.059C32.6761 304.319 32.9061 305.579 33.1461 306.839C37.4961 304.549 42.7061 305.029 47.6161 305.019C58.3761 304.999 69.1161 302.319 78.6161 297.279C78.0861 294.599 77.4761 292.029 77.4561 289.339C77.4461 286.599 76.3061 283.949 76.3061 281.199C76.1261 277.489 76.2661 273.769 76.4561 270.069C76.8061 263.049 77.2761 255.949 75.9661 249.039C75.1161 244.559 73.4361 240.139 70.7161 236.459C69.4661 234.769 67.7361 232.569 65.8161 231.599C63.7861 230.569 60.7361 230.909 58.4461 230.709C56.7761 230.559 55.0761 230.409 53.4261 230.699C51.3861 231.049 49.5061 232.039 47.7361 233.099C38.2661 238.779 37.1161 247.939 34.2661 257.799C32.8461 262.729 30.6061 267.389 29.1861 272.309C28.3861 275.059 28.0561 277.929 28.1261 280.789C28.1861 283.379 29.1861 285.679 29.6561 288.229C30.5861 293.159 31.5161 298.109 32.4361 303.059Z" fill="#FF4917"/>
<path d="M59.2261 239.699C60.9761 241.189 63.3161 241.969 65.6061 241.839C66.4061 241.789 67.2261 241.619 67.8561 241.139C68.4861 240.649 68.8661 239.769 68.5761 239.029" stroke="white" stroke-width="0.3975" stroke-miterlimit="10" stroke-linecap="round"/>
<path d="M57.0461 260.359C59.0761 267.099 64.4361 272.739 71.0661 275.109" stroke="white" stroke-width="0.3975" stroke-miterlimit="10" stroke-linecap="round"/>
<path d="M63.1862 265.589C64.9062 267.649 67.4362 269.009 70.0962 269.309" stroke="white" stroke-width="0.3975" stroke-miterlimit="10" stroke-linecap="round"/>
<path d="M51.0961 265.18C53.5261 272.87 57.8961 279.93 63.6761 285.54" stroke="white" stroke-width="0.3975" stroke-miterlimit="10" stroke-linecap="round"/>
<path d="M67.1961 229.239C67.6161 227.929 68.1761 226.679 68.8861 225.529C66.7461 225.459 64.7461 224.769 63.0061 223.529C62.1461 222.919 61.3761 222.199 60.6361 221.449C60.3761 221.179 59.9761 220.499 59.5561 220.009C59.1261 224.719 57.3661 229.149 53.3561 231.839C54.7061 234.319 56.9861 236.179 59.4261 237.589C61.5161 238.799 66.7361 241.149 66.8561 236.909C66.8961 235.519 66.3461 234.239 66.4661 232.829C66.5561 231.609 66.8261 230.399 67.1961 229.239Z" fill="#CF9378"/>
<path d="M66.4461 233.199C66.4461 233.079 66.4461 232.949 66.4561 232.819C66.5561 231.599 66.8261 230.389 67.1961 229.229C67.6161 227.919 68.1761 226.669 68.8861 225.519C66.7461 225.449 64.7461 224.759 63.0061 223.519C62.1461 222.909 61.3761 222.189 60.6361 221.439C60.3761 221.169 59.9761 220.489 59.5561 219.999C59.4961 220.689 59.3961 221.369 59.2761 222.049C59.5761 226.449 62.5761 231.199 66.4461 233.199Z" fill="#9C5240"/>
<path d="M35.6462 240.119C31.9262 244.369 30.3962 250.109 29.1362 255.479C27.5062 262.419 25.8662 269.369 24.2362 276.309C23.6662 278.719 22.7562 282.009 23.2962 284.459C23.8762 287.129 25.7962 289.599 28.1262 290.999C30.5962 292.479 34.3562 293.159 37.0762 291.899C39.7362 290.659 42.7762 289.409 44.7062 287.079C46.2062 285.269 46.6862 282.839 47.1262 280.529C47.7162 277.349 48.3162 274.169 48.9062 270.979C51.3362 257.979 53.7662 244.569 51.0162 231.629C44.4562 232.609 39.4762 235.749 35.6462 240.119Z" fill="#FF4917"/>
<path d="M51.1362 253.029C45.7262 254.439 46.2162 261.359 45.7262 265.629C45.0062 271.929 43.7962 278.179 42.1362 284.309" stroke="white" stroke-width="0.3975" stroke-miterlimit="10"/>
<path d="M47.0762 256.579C47.6762 254.699 48.8362 252.999 50.3562 251.759" stroke="white" stroke-width="0.3975" stroke-miterlimit="10"/>
<path d="M43.8761 282.489C46.7761 283.119 49.6261 284.049 52.4661 284.909C56.9861 286.279 61.5661 287.069 66.1561 288.289C67.4561 288.639 68.7861 288.979 70.1361 288.989C72.4561 289.009 74.6961 288.069 77.0161 288.019C80.1161 287.949 83.1561 289.679 84.8361 292.259C87.6761 296.599 82.9661 295.439 80.0061 295.389C77.6961 295.359 75.3861 295.319 73.0761 295.289C63.9961 295.159 55.4061 295.619 46.2961 296.379C41.3461 296.799 32.7161 297.959 28.3161 295.019C26.1761 293.589 22.6461 286.649 24.6161 284.569C24.9861 284.179 25.4961 283.959 25.9861 283.759C30.4361 281.989 35.2661 281.339 40.0461 281.839C41.3461 281.999 42.6161 282.219 43.8761 282.489Z" fill="#FFC1A6"/>
<path d="M119.986 307.978H59.9861C59.3161 307.978 58.7761 307.438 58.7761 306.768V306.358C58.7761 305.688 59.3161 305.148 59.9861 305.148H119.986C120.656 305.148 121.196 305.688 121.196 306.358V306.768C121.206 307.438 120.656 307.978 119.986 307.978Z" fill="#485070"/>
<path d="M127.516 307.979H74.1661L78.8061 277.329C78.9661 276.269 79.8661 275.469 80.9161 275.469H130.036C131.306 275.469 132.256 276.609 132.066 277.899L127.516 307.979Z" fill="#757E96"/>
<path d="M105.246 294.629C107.201 294.629 108.786 293.044 108.786 291.089C108.786 289.134 107.201 287.549 105.246 287.549C103.291 287.549 101.706 289.134 101.706 291.089C101.706 293.044 103.291 294.629 105.246 294.629Z" fill="white"/>
<path d="M77.7662 209.719C77.1562 207.339 74.6062 209.409 72.2762 208.619C70.2562 207.919 68.7162 207.299 66.5562 207.679C64.6362 208.009 62.7762 208.969 61.5762 210.529C61.2462 210.949 60.9562 211.379 60.6862 211.799C59.9762 213.309 59.3262 214.859 58.8962 216.479C58.8962 216.519 58.8862 216.549 58.8862 216.589C58.9962 219.709 60.0462 222.569 61.7662 224.939C63.4362 227.249 66.1562 228.699 68.9962 228.359C70.5062 228.169 71.9262 227.519 73.1562 226.229C74.3762 224.939 75.2162 223.329 75.9062 221.699C76.9562 219.209 78.4362 212.339 77.7662 209.719Z" fill="#CF9378"/>
<path d="M66.5161 212.059C66.5361 211.959 66.5561 211.839 66.5861 211.699C66.7961 210.709 67.0061 209.709 67.2161 208.719C69.7261 210.599 72.4461 213.269 75.6961 214.349C78.1561 215.169 80.9261 214.259 82.4861 212.209C82.7661 211.839 82.9761 211.439 83.1861 211.029C83.2761 210.839 83.5261 210.049 83.6161 209.979C82.7461 210.579 81.4961 210.149 80.7961 209.359C80.0961 208.569 79.7761 207.529 79.3761 206.549C78.4361 204.259 76.8861 202.189 74.8461 200.779C72.8061 199.369 70.2661 198.649 67.8061 198.949C66.2561 199.129 64.7561 199.729 63.5161 200.669C62.9061 201.129 62.3261 201.679 61.8761 202.309C61.6661 202.599 60.7861 204.189 61.1461 204.499C60.5961 204.029 59.7361 204.079 59.1061 204.439C58.4761 204.809 58.0461 205.429 57.6961 206.059C56.1661 208.739 55.6161 211.949 56.0861 214.999C56.2961 216.359 56.7861 217.549 57.2861 218.809C57.6961 219.839 58.3661 220.999 59.6161 221.019C61.3461 221.059 61.1561 218.149 61.6461 216.649C61.8361 216.059 61.7961 215.319 62.4961 215.149C63.2061 214.969 64.3561 216.319 64.9061 215.219C65.1061 214.819 65.0061 214.349 64.9161 213.909C64.8261 213.469 64.7561 212.989 64.9961 212.609C65.0161 212.569 65.9161 212.609 66.0461 212.569C66.3761 212.469 66.4561 212.299 66.5161 212.059Z" fill="#273238"/>
<path d="M62.2361 200.009C60.8861 201.819 60.6061 204.369 61.5361 206.429" stroke="#485070" stroke-width="0.75" stroke-miterlimit="10" stroke-linecap="round"/>
<path d="M57.4562 203.899C58.5562 203.209 60.1462 203.469 60.9862 204.459" stroke="#485070" stroke-width="0.75" stroke-miterlimit="10" stroke-linecap="round"/>
<path d="M71.2362 218.609C71.667 218.609 72.0162 218.26 72.0162 217.829C72.0162 217.398 71.667 217.049 71.2362 217.049C70.8054 217.049 70.4562 217.398 70.4562 217.829C70.4562 218.26 70.8054 218.609 71.2362 218.609Z" fill="#485070"/>
<path d="M70.6262 215.73C71.1362 215.57 71.6962 215.59 72.1962 215.77" stroke="#485070" stroke-width="0.75" stroke-miterlimit="10" stroke-linecap="round"/>
<path d="M76.9362 218.629C76.9362 219.059 76.5862 219.409 76.1562 219.409C75.7262 219.409 75.3762 219.059 75.3762 218.629C75.3762 218.199 75.7262 217.849 76.1562 217.849C76.5862 217.849 76.9362 218.199 76.9362 218.629Z" fill="#485070"/>
<path d="M75.5562 216.529C76.0662 216.369 76.6262 216.389 77.1262 216.569" stroke="#485070" stroke-width="0.75" stroke-miterlimit="10" stroke-linecap="round"/>
<path d="M74.1362 219.009C74.0462 219.689 74.2362 220.409 74.6462 220.959C74.7562 221.099 74.8862 221.259 74.8762 221.429C74.8662 221.619 74.6862 221.769 74.5062 221.819C74.3162 221.869 74.1262 221.829 73.9362 221.789" stroke="#485070" stroke-width="0.75" stroke-miterlimit="10" stroke-linecap="round"/>
<path d="M70.6262 223.279C71.3462 223.919 72.3762 224.179 73.3162 223.969" stroke="#485070" stroke-width="0.75" stroke-miterlimit="10" stroke-linecap="round"/>
<path d="M58.6761 216.419C58.6761 217.999 59.9561 219.279 61.5361 219.279C63.1161 219.279 64.3961 217.999 64.3961 216.419C64.3961 214.839 63.1161 213.559 61.5361 213.559C59.9561 213.569 58.6761 214.849 58.6761 216.419Z" fill="#CF9378"/>
<path d="M60.9761 215.199C61.3861 215.149 61.8261 215.319 62.0861 215.639C62.3461 215.959 62.4261 216.429 62.2861 216.819C62.0361 216.589 61.6561 216.539 61.3461 216.689C61.0461 216.839 60.8561 217.179 60.8761 217.509" stroke="#485070" stroke-width="0.75" stroke-miterlimit="10" stroke-linecap="round" stroke-linejoin="round"/>
<path d="M378.786 379.909C378.706 379.549 368.496 381.339 367.366 381.509C367.326 381.549 367.286 381.579 367.246 381.619C363.716 384.619 359.236 386.249 354.856 387.839C354.176 388.089 353.476 388.349 353.006 388.899C351.016 391.229 355.236 392.239 356.736 392.359C359.186 392.569 361.616 392.069 363.996 391.649C368.916 390.779 373.936 391.059 378.806 389.859C378.996 389.809 379.206 389.749 379.316 389.599C379.406 389.469 379.426 389.309 379.436 389.149C379.686 386.089 379.476 382.959 378.786 379.909Z" fill="#485070"/>
<path d="M356.426 308.099C358.896 332.679 363.386 357.899 366.206 382.459C371.966 382.959 374.056 382.579 379.646 381.629C383.316 354.919 384.866 342.029 381.556 314.929C381.216 312.149 381.506 289.109 381.406 286.149C380.816 268.539 383.176 248.429 372.596 233.559C369.926 229.799 365.546 226.919 361.096 227.269C357.846 227.519 355.336 229.299 353.466 231.839C348.006 239.259 351.046 259.409 352.026 268.209C353.316 279.879 355.256 296.389 356.426 308.099Z" fill="#14212A"/>
<path d="M339.406 383.32C339.306 383.32 339.196 383.33 339.106 383.34C335.836 383.73 332.516 383.72 329.246 383.29C328.826 383.24 328.406 383.17 327.996 383.27C327.626 383.36 327.296 383.56 326.976 383.76C323.916 385.62 320.526 386.92 317.006 387.57C314.976 387.94 312.796 388.15 311.196 389.44C310.446 390.04 309.856 391.16 310.426 391.93C310.626 392.19 310.916 392.36 311.216 392.5C314.286 393.94 318.926 393.38 322.226 393.2C327.556 392.9 332.836 393.23 338.096 392.16C338.316 392.12 338.536 392.06 338.706 391.92C338.946 391.72 339.026 391.4 339.096 391.1C339.436 389.65 339.716 388.17 339.896 386.68C339.966 386.09 340.296 383.98 339.886 383.49C339.756 383.37 339.586 383.33 339.406 383.32Z" fill="#485070"/>
<path d="M352.446 230.65C340.326 230.46 336.616 243.11 335.176 252.84C332.126 273.39 329.986 294.07 328.766 314.81C328.156 325.13 327.346 333.84 327.006 344.17C326.646 354.77 326.076 373.12 326.536 383.67C326.546 383.88 326.566 384.11 326.696 384.28C326.856 384.46 327.116 384.5 327.356 384.53C331.796 385 336.286 385.07 340.746 384.72C340.956 384.7 341.176 384.68 341.346 384.56C341.536 384.42 339.826 383.75 339.896 383.52C343.306 372.99 345.636 354.17 346.706 343.16C348.946 320.15 353.726 297.76 362.306 276.51C370.876 256.44 375.726 231.03 352.446 230.65Z" fill="#14212A"/>
<path d="M354.826 257.91C354.866 257.92 354.906 257.92 354.946 257.93C356.056 258.11 357.166 258.27 358.276 258.41C359.096 258.51 359.916 258.6 360.736 258.67C361.006 258.7 361.276 258.72 361.546 258.74C362.236 258.8 362.916 258.85 363.606 258.88C363.996 258.9 364.386 258.92 364.766 258.93C365.066 258.94 365.376 258.96 365.676 258.97V258.96C370.906 259.12 376.156 258.77 381.306 257.86C380.536 248.57 378.506 239.62 373.106 232.04C370.436 228.28 366.056 225.4 361.606 225.75C358.356 226 355.846 227.78 353.976 230.32C353.566 230.87 353.216 231.51 352.906 232.19C342.376 231.95 337.726 242.56 335.386 251.51C337.756 252.95 340.366 254.05 342.926 254.94C346.786 256.3 350.786 257.25 354.826 257.91Z" fill="#091116"/>
<path d="M360.106 164.589C360.176 163.219 360.086 161.849 359.816 160.529C361.836 161.209 363.956 161.269 366.026 160.709C367.046 160.439 368.016 160.029 368.966 159.579C369.306 159.419 369.916 158.919 370.476 158.609C369.236 163.169 369.336 167.939 372.166 171.859C370.036 173.709 367.256 174.659 364.476 175.129C362.086 175.539 356.386 175.909 357.756 171.899C358.206 170.589 359.166 169.579 359.546 168.209C359.866 167.039 360.046 165.799 360.106 164.589Z" fill="#F7B699"/>
<path d="M365.636 160.79C363.696 161.24 361.716 161.16 359.816 160.52C360.086 161.85 360.176 163.21 360.106 164.58C360.046 165.8 359.876 167.03 359.546 168.2C359.516 168.32 359.466 168.44 359.426 168.56C359.666 168.53 359.896 168.49 360.136 168.44C362.826 166.64 364.676 163.87 365.636 160.79Z" fill="#C46E58"/>
<path d="M357.016 142.609C358.416 140.589 360.086 143.429 362.546 143.489C364.686 143.539 366.346 143.499 368.236 144.609C369.916 145.589 371.326 147.139 371.916 149.019C372.076 149.529 372.206 150.029 372.306 150.519C372.446 152.189 372.516 153.869 372.356 155.539C372.346 155.569 372.336 155.609 372.326 155.639C371.126 158.529 369.156 160.839 366.706 162.459C364.336 164.039 361.276 164.449 358.746 163.139C357.396 162.439 356.286 161.329 355.586 159.699C354.886 158.069 354.666 156.269 354.586 154.489C354.456 151.789 355.466 144.839 357.016 142.609Z" fill="#F7B699"/>
<path d="M359.786 147.299C357.866 147.579 356.306 147.879 354.546 146.849C353.206 146.069 352.186 144.779 351.736 143.299C351.606 142.849 351.536 142.409 351.486 141.949C351.466 141.739 351.516 140.909 351.446 140.819C352.056 141.679 353.376 141.719 354.306 141.229C355.236 140.739 355.896 139.869 356.616 139.089C358.296 137.269 360.476 135.879 362.876 135.269C365.276 134.659 367.906 134.869 370.116 136.009C371.496 136.719 372.696 137.809 373.536 139.119C373.946 139.769 374.296 140.489 374.496 141.229C374.586 141.579 374.856 143.379 374.416 143.539C375.096 143.289 375.886 143.639 376.346 144.199C376.806 144.759 376.986 145.499 377.106 146.209C377.466 148.449 377.156 151.309 376.216 153.389C375.476 155.019 374.696 156.819 373.786 158.369C372.996 159.719 371.896 160.939 370.486 161.629C368.706 162.499 366.636 162.429 364.656 162.319C362.836 162.219 361.446 161.569 360.696 159.819C360.356 159.029 360.246 158.059 360.186 157.209C360.166 156.839 359.986 154.269 360.296 154.119C359.926 154.309 359.536 154.509 359.116 154.539C358.696 154.569 358.236 154.399 358.056 154.019C357.886 153.669 357.996 153.249 358.106 152.869C358.676 151.009 359.226 149.159 359.786 147.299Z" fill="#273238"/>
<path d="M374.956 138.93C375.596 141.09 374.966 143.59 373.376 145.19" stroke="#485070" stroke-width="0.75" stroke-miterlimit="10" stroke-linecap="round"/>
<path d="M378.076 144.239C377.276 143.209 375.706 142.889 374.566 143.529" stroke="#485070" stroke-width="0.75" stroke-miterlimit="10" stroke-linecap="round"/>
<path d="M364.326 155.559C363.776 157.039 362.126 157.789 360.656 157.239C359.176 156.689 358.426 155.039 358.976 153.569C359.526 152.089 361.176 151.339 362.646 151.889C364.116 152.429 364.876 154.079 364.326 155.559Z" fill="#F7B699"/>
<path d="M362.596 153.609C362.226 153.419 361.756 153.429 361.396 153.639C361.036 153.849 360.796 154.259 360.796 154.669C361.106 154.539 361.486 154.629 361.716 154.869C361.946 155.109 362.006 155.499 361.866 155.799" stroke="#485070" stroke-width="0.75" stroke-miterlimit="10" stroke-linecap="round" stroke-linejoin="round"/>
<path d="M324.636 187.969C324.806 187.079 325.466 186.299 326.326 186.009C327.206 185.699 328.696 185.699 328.996 184.809C329.146 184.369 329.286 184.199 328.936 183.899C328.576 183.599 328.106 183.469 327.636 183.449C326.206 183.359 324.756 184.169 324.076 185.429C323.866 185.819 323.566 186.329 323.136 186.199C322.936 186.139 322.806 185.949 322.726 185.759C322.226 184.589 322.916 183.289 323.586 182.209C324.106 181.359 324.676 180.479 325.536 179.979C326.506 179.429 327.696 179.459 328.816 179.539C331.076 179.699 333.436 179.869 335.346 181.209C335.846 181.559 336.306 181.969 336.806 182.329C338.086 183.239 339.596 183.749 341.086 184.239C340.626 185.849 340.156 187.459 339.696 189.079C339.676 189.159 339.646 189.249 339.566 189.299C339.486 189.349 339.386 189.329 339.296 189.309C336.556 188.639 333.396 188.079 330.646 187.649C328.676 187.379 326.586 187.629 324.636 187.969Z" fill="#F7B699"/>
<path d="M339.706 180.64C337.196 183.79 335.846 187.85 335.976 191.88C337.736 192.58 339.496 193.28 341.256 193.99C341.866 191.2 342.466 188.41 343.076 185.63C343.256 184.79 344.006 183.01 343.526 182.32C343.016 181.57 340.556 181.01 339.706 180.64Z" fill="white"/>
<path d="M357.856 187.25C356.426 186.36 354.896 185.57 353.316 184.86C350.606 183.64 347.746 182.64 345.016 181.7C343.986 181.34 342.896 180.94 341.826 180.72C338.856 183.89 337.816 189.26 338.176 193.77C341.306 196.51 345.886 198.14 349.336 200.29C351.266 201.5 353.186 202.76 355.306 203.59C357.426 204.42 359.806 204.8 361.996 204.17C363.136 203.84 364.266 203.17 364.766 202.09C365.076 201.42 365.116 200.65 365.096 199.91C364.976 194.85 362.156 189.93 357.856 187.25Z" fill="#FF4917"/>
<path d="M306.296 204.84C305.126 202.75 304.846 200.14 305.716 197.91C306.036 197.08 306.576 196.26 307.416 195.99C308.426 195.67 309.546 196.28 310.186 197.13C310.826 197.98 311.126 199.03 311.536 200.01C311.976 201.07 312.556 202.08 313.256 202.99C313.986 203.94 314.866 204.86 315.076 206.03C315.246 206.96 314.926 207.97 314.246 208.64C311.736 211.11 307.516 207 306.296 204.84Z" fill="#F7B699"/>
<path d="M334.586 203.32L319.416 210.67L299.336 192.45L314.516 185.1L334.586 203.32Z" fill="#F4AE2D"/>
<path d="M332.106 202.559L319.076 208.879L301.726 193.129L314.766 186.819L332.106 202.559Z" fill="white"/>
<path d="M316.746 190.149L305.916 195.399L304.856 194.439L315.686 189.189L316.746 190.149Z" fill="#C8DDF7"/>
<path d="M322.276 195.169L311.446 200.419L310.386 199.459L321.216 194.209L322.276 195.169Z" fill="#C8DDF7"/>
<path d="M324.106 196.829L313.276 202.079L312.226 201.119L323.056 195.869L324.106 196.829Z" fill="#C8DDF7"/>
<path d="M325.946 198.499L315.116 203.749L314.056 202.789L324.886 197.539L325.946 198.499Z" fill="#C8DDF7"/>
<path d="M327.776 200.159L316.946 205.409L315.886 204.449L326.716 199.199L327.776 200.159Z" fill="#C8DDF7"/>
<path d="M329.606 201.819L318.776 207.069L317.716 206.109L328.556 200.859L329.606 201.819Z" fill="#C8DDF7"/>
<path d="M314.116 188.299L305.016 192.709L301.136 189.189L310.246 184.779L314.116 188.299Z" fill="#485070"/>
<path d="M307.866 203.17C307.716 203.35 307.576 203.53 307.456 203.73C306.306 205.57 308.526 207.29 309.946 208.28C313.156 210.54 317.076 211.62 320.796 212.7C322.896 213.31 328.976 211.81 327.296 208.51C326.146 206.26 322.756 204.96 320.526 204.36C318.206 203.93 316.226 202.96 315.356 200.61C314.966 199.57 314.816 198.45 314.476 197.39C314.396 197.13 314.296 196.86 314.086 196.68C313.886 196.5 313.546 196.43 313.336 196.6C313.216 196.7 313.156 196.85 313.096 196.99C312.446 198.8 313.616 200.14 311.376 201.21C310.636 201.56 309.826 201.76 309.106 202.15C308.646 202.42 308.216 202.77 307.866 203.17Z" fill="#F7B699"/>
<path d="M319.046 201.21C316.886 204.61 315.986 208.8 316.546 212.79C318.376 213.3 320.196 213.81 322.026 214.32C322.326 211.48 322.626 208.65 322.936 205.81C323.026 204.96 323.576 203.1 323.026 202.47C322.436 201.78 319.936 201.48 319.046 201.21Z" fill="white"/>
<path d="M356.586 168.17C357.656 167.21 359.206 167.03 360.636 166.89C364.346 166.54 368.046 166.2 371.756 165.85C372.456 168.33 373.156 170.81 373.856 173.29C373.826 173.19 361.836 173.66 360.686 173.63C359.486 173.59 355.576 173.98 355.076 172.86C354.526 171.6 355.666 168.99 356.586 168.17Z" fill="white"/>
<path d="M380.956 229.98C380.966 226.03 381.186 222.09 381.436 218.15C381.766 213.02 382.146 207.89 382.216 202.75C382.296 196.51 382.046 189.93 380.946 183.64C380.676 182.07 380.346 180.52 379.956 179C379.876 178.69 379.786 178.35 379.696 178.01C378.516 175.18 376.276 171.42 373.286 169.75C372.786 169.72 372.286 169.74 371.786 169.78C368.356 170.01 364.936 170.39 361.536 170.91C359.196 171.27 357.536 171.57 355.816 173.36C351.426 177.93 347.306 188.18 346.156 194.47C345.056 200.48 345.486 200.83 344.866 206.89C344.126 214.11 343.066 221.3 341.716 228.43C340.576 234.44 338.856 240.97 333.866 244.51C342.146 247.99 350.526 251.49 359.396 252.88C368.266 254.27 377.816 253.34 385.366 248.47C381.796 242.97 380.936 236.53 380.956 229.98Z" fill="#FF4917"/>
<path d="M360.476 189.31C360.136 188.65 359.716 188 359.096 187.59C358.436 187.15 357.606 187.03 356.816 187.07C353.346 187.22 350.596 190.06 348.746 193C346.896 195.94 345.466 199.26 342.816 201.51C338.206 205.45 327.096 202.23 321.936 201.08C318.006 204.92 317.586 209.37 319.626 214.55C326.546 217.59 341.106 224.8 348.656 221.2C351.286 219.95 353.246 217.77 354.866 215.3C355.796 213.87 356.616 212.35 357.386 210.85C359.106 207.49 360.756 204.05 361.546 200.36C362.346 196.67 362.216 192.67 360.476 189.31Z" fill="#FF4917"/>
<path d="M363.556 176.82C361.256 174.37 357.296 174.1 354.516 175.85C352.886 176.87 352.066 178.98 351.226 180.65C350.196 182.7 349.316 184.82 348.606 187C347.866 189.25 347.296 191.56 346.606 193.82C345.466 197.53 343.986 201.15 343.136 204.94C342.286 208.73 342.096 212.8 343.526 216.41C345.566 221.57 352.356 218.83 355.376 215.96C357.986 213.49 359.226 209.95 360.396 206.55C361.566 203.13 362.726 199.72 363.896 196.3C364.876 193.42 366.006 189.6 366.216 185.91C366.386 182.5 365.786 179.19 363.556 176.82Z" fill="#FF4917"/>
<path d="M320.806 191.089L319.016 192.059L319.926 190.239L330.716 179.069C330.946 178.829 331.336 178.819 331.586 179.049C331.826 179.279 331.836 179.669 331.606 179.919L320.806 191.089Z" fill="#485070"/>
</svg>
