<svg width="229" height="270" viewBox="0 0 229 270" fill="none" xmlns="http://www.w3.org/2000/svg">
<path d="M30.8162 145.538L30.164 144.78L30.1581 144.785L30.8162 145.538ZM121.316 57.5382L122.302 57.707L121.316 57.5382ZM189.316 4.0382L189.657 3.09809L189.648 3.09474L189.316 4.0382ZM28.7785 265.585C28.3967 265.186 27.7637 265.172 27.3646 265.554C26.9655 265.936 26.9514 266.569 27.3332 266.968L28.7785 265.585ZM22.0937 261.029C22.4428 261.457 23.0727 261.521 23.5007 261.171C23.9287 260.822 23.9927 260.192 23.6436 259.764L22.0937 261.029ZM18.9556 253.563C18.6388 253.111 18.0153 253.001 17.5629 253.317C17.1105 253.634 17.0005 254.258 17.3173 254.71L18.9556 253.563ZM13.0162 248.064C13.2991 248.539 13.9129 248.694 14.3873 248.411C14.8616 248.128 15.0169 247.514 14.7341 247.04L13.0162 248.064ZM11.0124 240.227C10.7665 239.732 10.1663 239.531 9.67174 239.776C9.17723 240.022 8.9757 240.623 9.22162 241.117L11.0124 240.227ZM5.98291 233.889C6.18779 234.402 6.76964 234.652 7.28252 234.447C7.7954 234.242 8.04508 233.66 7.8402 233.147L5.98291 233.889ZM5.28089 225.832C5.12203 225.303 4.56445 225.003 4.0355 225.162C3.50656 225.321 3.20656 225.878 3.36542 226.407L5.28089 225.832ZM1.44563 218.709C1.55301 219.251 2.07923 219.603 2.62098 219.496C3.16272 219.388 3.51484 218.862 3.40746 218.32L1.44563 218.709ZM2.29543 210.667C2.24491 210.117 1.75811 209.712 1.20814 209.763C0.658176 209.814 0.253294 210.3 0.303817 210.85L2.29543 210.667ZM0.0133078 202.907C0.00253725 203.459 0.441436 203.915 0.993616 203.926C1.5458 203.937 2.00216 203.498 2.01293 202.946L0.0133078 202.907ZM2.60886 195.243C2.68344 194.695 2.30029 194.191 1.75306 194.117C1.20584 194.042 0.70176 194.425 0.627177 194.972L2.60886 195.243ZM2.1597 187.176C2.02166 187.71 2.34326 188.256 2.87802 188.394C3.41278 188.532 3.95818 188.21 4.09622 187.675L2.1597 187.176ZM6.45273 180.328C6.65108 179.812 6.39403 179.234 5.87859 179.035C5.36315 178.837 4.78451 179.094 4.58616 179.609L6.45273 180.328ZM7.85063 172.348C7.59736 172.839 7.7899 173.442 8.28069 173.695C8.77147 173.949 9.37465 173.756 9.62793 173.265L7.85063 172.348ZM13.5098 166.598C13.8109 166.135 13.6796 165.516 13.2166 165.215C12.7536 164.913 12.1342 165.045 11.8331 165.508L13.5098 166.598ZM16.4654 159.057C16.1236 159.491 16.1981 160.12 16.6319 160.462C17.0657 160.804 17.6944 160.729 18.0363 160.295L16.4654 159.057ZM23.0832 154.408C23.459 154.003 23.4355 153.37 23.0307 152.994C22.626 152.619 21.9932 152.642 21.6175 153.047L23.0832 154.408ZM27.1943 147.462C26.7906 147.839 26.769 148.472 27.1459 148.875C27.5228 149.279 28.1556 149.301 28.5593 148.924L27.1943 147.462ZM34.6878 143.61C35.1172 143.262 35.1838 142.633 34.8364 142.203C34.4891 141.774 33.8594 141.708 33.43 142.055L34.6878 143.61ZM40.1659 136.948C39.7153 137.267 39.6089 137.892 39.9283 138.342C40.2476 138.793 40.8718 138.899 41.3224 138.58L40.1659 136.948ZM48.2488 134.007C48.7195 133.718 48.8669 133.102 48.578 132.631C48.2892 132.16 47.6734 132.013 47.2027 132.302L48.2488 134.007ZM54.5515 128.117C54.0631 128.375 53.8762 128.979 54.1341 129.468C54.3919 129.956 54.9968 130.143 55.4852 129.885L54.5515 128.117ZM62.9629 126.211C63.4649 125.981 63.6853 125.388 63.4551 124.886C63.2249 124.384 62.6313 124.163 62.1293 124.393L62.9629 126.211ZM69.8591 121.038C69.349 121.25 69.1072 121.835 69.3189 122.345C69.5306 122.855 70.1158 123.097 70.6259 122.885L69.8591 121.038ZM78.394 119.705C78.9047 119.495 79.1482 118.911 78.9379 118.4C78.7276 117.889 78.1432 117.646 77.6325 117.856L78.394 119.705ZM85.2761 114.538C84.776 114.772 84.5607 115.368 84.7951 115.868C85.0296 116.368 85.625 116.583 86.125 116.349L85.2761 114.538ZM93.6272 112.357C94.0979 112.068 94.2451 111.452 93.9561 110.981C93.6671 110.511 93.0513 110.364 92.5807 110.653L93.6272 112.357ZM99.202 105.806C98.7869 106.17 98.7456 106.802 99.1099 107.217C99.4741 107.632 100.106 107.673 100.521 107.309L99.202 105.806ZM106.394 101.092C106.735 100.657 106.659 100.029 106.224 99.688C105.789 99.3473 105.161 99.4234 104.82 99.8581L106.394 101.092ZM109.342 92.9817C109.075 93.465 109.25 94.0734 109.733 94.3408C110.216 94.6081 110.825 94.433 111.092 93.9497L109.342 92.9817ZM114.729 86.2717C114.936 85.76 114.69 85.1768 114.178 84.969C113.667 84.7612 113.083 85.0077 112.876 85.5194L114.729 86.2717ZM115.636 77.7199C115.473 78.2476 115.769 78.8075 116.297 78.9703C116.824 79.1332 117.384 78.8374 117.547 78.3097L115.636 77.7199ZM119.78 70.1132C119.909 69.5762 119.579 69.0363 119.042 68.9072C118.505 68.7781 117.965 69.1088 117.836 69.6458L119.78 70.1132ZM119.576 61.5391C119.472 62.0815 119.827 62.6054 120.37 62.7092C120.912 62.813 121.436 62.4575 121.54 61.915L119.576 61.5391ZM123.07 53.6125C123.181 53.0714 122.832 52.543 122.291 52.4323C121.75 52.3216 121.221 52.6705 121.111 53.2116L123.07 53.6125ZM123.091 45.0248C122.941 45.5563 123.251 46.1088 123.782 46.2589C124.314 46.409 124.866 46.0998 125.016 45.5683L123.091 45.0248ZM127.593 37.7398C127.789 37.2236 127.53 36.6459 127.014 36.4496C126.497 36.2532 125.92 36.5125 125.723 37.0287L127.593 37.7398ZM129.131 29.302C128.881 29.7942 129.077 30.3963 129.569 30.6467C130.061 30.8972 130.663 30.7011 130.914 30.2089L129.131 29.302ZM135.091 23.1343C135.403 22.6785 135.286 22.0562 134.83 21.7443C134.375 21.4324 133.752 21.5491 133.44 22.0049L135.091 23.1343ZM138.741 15.3789C138.363 15.7818 138.383 16.4146 138.786 16.7924C139.189 17.1701 139.822 17.1497 140.2 16.7468L138.741 15.3789ZM146.27 11.2917C146.712 10.9603 146.801 10.3335 146.47 9.89166C146.138 9.44986 145.511 9.36036 145.07 9.69176L146.27 11.2917ZM152.325 5.23309C151.829 5.47707 151.625 6.07652 151.869 6.57199C152.113 7.06746 152.713 7.27134 153.208 7.02736L152.325 5.23309ZM160.822 4.12575C161.354 3.97757 161.665 3.42614 161.517 2.89411C161.369 2.36208 160.818 2.0509 160.286 2.19908L160.822 4.12575ZM168.657 0.65569C168.107 0.707988 167.704 1.19609 167.756 1.74589C167.809 2.29569 168.297 2.699 168.847 2.6467L168.657 0.65569ZM177.01 2.55857C177.561 2.59836 178.04 2.18407 178.08 1.63322C178.12 1.08237 177.705 0.60356 177.154 0.563768L177.01 2.55857ZM185.561 1.88247C185.025 1.75043 184.483 2.07812 184.351 2.61439C184.219 3.15066 184.547 3.69243 185.083 3.82447L185.561 1.88247ZM192.813 6.55009C193.316 6.77853 193.909 6.55609 194.137 6.05326C194.366 5.55044 194.143 4.95763 193.641 4.72919L192.813 6.55009ZM201.217 8.79907C200.748 8.50727 200.132 8.65083 199.84 9.11973C199.548 9.58862 199.691 10.2053 200.16 10.4971L201.217 8.79907ZM206.959 15.3433C207.387 15.6918 208.017 15.6269 208.366 15.1985C208.714 14.77 208.649 14.1402 208.221 13.7917L206.959 15.3433ZM214.514 19.6538C214.137 19.2502 213.504 19.2286 213.101 19.6056C212.697 19.9826 212.676 20.6154 213.053 21.019L214.514 19.6538ZM218.253 27.504C218.564 27.9607 219.186 28.0791 219.643 27.7685C220.099 27.4578 220.218 26.8358 219.907 26.3792L218.253 27.504ZM224.143 33.9061C223.915 33.403 223.322 33.1798 222.819 33.4076C222.316 33.6354 222.093 34.2279 222.321 34.731L224.143 33.9061ZM225.033 42.5533C225.165 43.0896 225.707 43.4173 226.243 43.2853C226.779 43.1532 227.107 42.6115 226.975 42.0752L225.033 42.5533ZM228.262 50.6186C228.23 50.0673 227.756 49.6468 227.205 49.6795C226.654 49.7122 226.233 50.1856 226.266 50.7369L228.262 50.6186ZM226.05 59.0235C225.99 59.5726 226.387 60.0659 226.936 60.1254C227.485 60.1849 227.978 59.788 228.038 59.239L226.05 59.0235ZM226.476 67.7146C226.614 67.1798 226.292 66.6345 225.758 66.4965C225.223 66.3585 224.677 66.6802 224.54 67.215L226.476 67.7146ZM31.507 268.315C30.6106 267.459 29.699 266.548 28.7785 265.585L27.3332 266.968C28.2739 267.951 29.2067 268.883 30.1253 269.761L31.507 268.315ZM23.6436 259.764C22.0627 257.826 20.49 255.755 18.9556 253.563L17.3173 254.71C18.8802 256.942 20.4825 259.053 22.0937 261.029L23.6436 259.764ZM14.7341 247.04C13.4305 244.854 12.1824 242.579 11.0124 240.227L9.22162 241.117C10.4152 243.517 11.6878 245.836 13.0162 248.064L14.7341 247.04ZM7.8402 233.147C6.88973 230.768 6.0302 228.327 5.28089 225.832L3.36542 226.407C4.13252 228.961 5.01173 231.458 5.98291 233.889L7.8402 233.147ZM3.40746 218.32C2.90966 215.809 2.53318 213.255 2.29543 210.667L0.303817 210.85C0.5482 213.511 0.934955 216.133 1.44563 218.709L3.40746 218.32ZM2.01293 202.946C2.06256 200.401 2.25602 197.831 2.60886 195.243L0.627177 194.972C0.263613 197.64 0.0644069 200.287 0.0133078 202.907L2.01293 202.946ZM4.09622 187.675C4.7259 185.236 5.50712 182.785 6.45273 180.328L4.58616 179.609C3.61299 182.138 2.80844 184.662 2.1597 187.176L4.09622 187.675ZM9.62793 173.265C10.7747 171.043 12.0655 168.819 13.5098 166.598L11.8331 165.508C10.353 167.784 9.02856 170.065 7.85063 172.348L9.62793 173.265ZM18.0363 160.295C19.5874 158.327 21.2675 156.364 23.0832 154.408L21.6175 153.047C19.7661 155.041 18.0509 157.046 16.4654 159.057L18.0363 160.295ZM28.5593 148.924C29.5015 148.044 30.4729 147.166 31.4743 146.291L30.1581 144.785C29.1405 145.675 28.1528 146.567 27.1943 147.462L28.5593 148.924ZM31.4683 146.296C32.5499 145.366 33.6231 144.471 34.6878 143.61L33.43 142.055C32.3495 142.929 31.2608 143.837 30.1641 144.78L31.4683 146.296ZM41.3224 138.58C43.675 136.913 45.984 135.396 48.2488 134.007L47.2027 132.302C44.9016 133.714 42.5557 135.254 40.1659 136.948L41.3224 138.58ZM55.4852 129.885C58.0383 128.538 60.5309 127.326 62.9629 126.211L62.1293 124.393C59.6691 125.521 57.1426 126.749 54.5515 128.117L55.4852 129.885ZM70.6259 122.885C73.3082 121.772 75.874 120.743 78.394 119.705L77.6325 117.856C75.1478 118.879 72.5321 119.929 69.8591 121.038L70.6259 122.885ZM86.125 116.349C88.7294 115.128 91.2328 113.827 93.6272 112.357L92.5807 110.653C90.2669 112.073 87.8333 113.339 85.2761 114.538L86.125 116.349ZM100.521 107.309C102.589 105.495 104.547 103.448 106.394 101.092L104.82 99.8581C103.051 102.115 101.178 104.072 99.202 105.806L100.521 107.309ZM111.092 93.9497C112.376 91.6294 113.588 89.082 114.729 86.2717L112.876 85.5194C111.762 88.2625 110.583 90.7373 109.342 92.9817L111.092 93.9497ZM117.547 78.3097C118.334 75.7597 119.078 73.0331 119.78 70.1132L117.836 69.6458C117.143 72.5284 116.409 75.214 115.636 77.7199L117.547 78.3097ZM121.54 61.915C121.801 60.5491 122.055 59.1468 122.302 57.707L120.331 57.3694C120.086 58.797 119.834 60.1864 119.576 61.5391L121.54 61.915ZM122.302 57.707C122.541 56.3091 122.798 54.9445 123.07 53.6125L121.111 53.2116C120.834 54.5652 120.573 55.9509 120.331 57.3694L122.302 57.707ZM125.016 45.5683C125.799 42.7948 126.661 40.1882 127.593 37.7398L125.723 37.0287C124.77 39.5348 123.89 42.1974 123.091 45.0248L125.016 45.5683ZM130.914 30.2089C132.223 27.6356 133.621 25.2828 135.091 23.1343L133.44 22.0049C131.92 24.2275 130.478 26.6549 129.131 29.302L130.914 30.2089ZM140.2 16.7468C142.151 14.6656 144.184 12.8565 146.27 11.2917L145.07 9.69176C142.89 11.3267 140.771 13.2135 138.741 15.3789L140.2 16.7468ZM153.208 7.02736C155.725 5.78788 158.278 4.83448 160.822 4.12575L160.286 2.19908C157.627 2.93953 154.958 3.93631 152.325 5.23309L153.208 7.02736ZM168.847 2.6467C171.658 2.3793 174.4 2.37001 177.01 2.55857L177.154 0.563768C174.44 0.367657 171.586 0.377132 168.657 0.65569L168.847 2.6467ZM185.083 3.82447C186.469 4.1656 187.774 4.55631 188.985 4.98166L189.648 3.09474C188.375 2.64745 187.007 2.23852 185.561 1.88247L185.083 3.82447ZM188.975 4.97826C190.187 5.41794 191.474 5.94163 192.813 6.55009L193.641 4.72919C192.256 4.10016 190.921 3.5565 189.657 3.09814L188.975 4.97826ZM200.16 10.4971C202.425 11.9065 204.719 13.5215 206.959 15.3433L208.221 13.7917C205.912 11.9136 203.549 10.2501 201.217 8.79907L200.16 10.4971ZM213.053 21.019C214.915 23.0129 216.669 25.1743 218.253 27.504L219.907 26.3792C218.26 23.958 216.441 21.7167 214.514 19.6538L213.053 21.019ZM222.321 34.731C223.435 37.1919 224.355 39.7989 225.033 42.5533L226.975 42.0752C226.266 39.1969 225.305 36.474 224.143 33.9061L222.321 34.731ZM226.266 50.7369C226.423 53.3823 226.362 56.1441 226.05 59.0235L228.038 59.239C228.362 56.2507 228.426 53.3773 228.262 50.6186L226.266 50.7369ZM224.54 67.215C224.2 68.5312 223.81 69.869 223.366 71.2287L225.267 71.8495C225.724 70.4507 226.126 69.0724 226.476 67.7146L224.54 67.215Z" fill="#616161"/>
</svg>
